<svg xmlns="http://www.w3.org/2000/svg" width="362.9082157090723" height="309.27187499999997" viewBox="0 0 200 170.44082311320818" class="looka-1j8o68f"><defs id="SvgjsDefs8047"></defs><g id="SvgjsG8048" featurekey="8FbbNb-0" transform="matrix(5.589420731713818,0,0,5.589420731713818,-4.255229154437641,-30.07611882124596)" fill="#000000"><path d="M14.902 13.6719 l-1.4844 6.3672 l-4.8926 0 l1.3867 -5.9766 l-2.832 0 l-1.3965 5.9766 l-4.9219 0 l1.4746 -6.3672 l-0.98633 0 l1.8848 -8.2422 l4.9219 0 l-1.123 4.9512 l2.8223 0 l1.1426 -4.9512 l4.9023 0 l-1.9043 8.2422 l1.0059 0 z M22.070321875 13.6719 l-1.4648 6.3672 l-4.9414 0 l1.4648 -6.3672 l-0.99609 0 l1.9141 -8.2422 l4.9316 0 l-1.8945 8.2422 l0.98633 0 z M31.728640625 13.3594 l-1.4844 6.6797 l-4.9512 0 l1.5234 -6.6797 l-0.88867 0 l0.98633 -4.2773 l-3.9063 0 l0.85938 -3.7012 l12.676 0 l-0.83008 3.7012 l-3.8965 0 l-0.95703 4.2773 l0.86914 0 z"></path></g><g id="SvgjsG8049" featurekey="8FbbNb-1" transform="matrix(3.6914135740953293,0,0,3.6914135740953293,-2.5953597101888866,72.89423917893986)" fill="#000000"><path d="M2.2363 13.3594 l-0.88867 0 l1.8164 -7.9785 c1.6992 0 4.7656 -0.16602 7.1875 0.15625 c2.1387 0.3125 4.209 1.1035 3.8477 3.6719 c-0.20508 1.5527 -1.3965 3.1445 -2.6855 4.1504 l0.87891 0 c-0.23438 0.17578 -0.46875 0.36133 -0.72266 0.48828 l3.3398 6.1914 l-5.8594 0 l-2.4414 -4.7754 l-1.084 4.7754 l-4.9219 0 z M7.2754 8.994 l-0.5957 2.5195 c2.3535 0 3.6719 -2.5195 0.5957 -2.5195 z M17.431609375 13.6328 l-1.123 0 l4.5898 -8.1934 l4.873 0 l0.79102 8.1934 l1.0938 0 l0.61523 6.3574 l-5.0293 0 l-0.20508 -2.7441 l-2.7832 0 c-0.48828 0.9082 -0.94727 1.8262 -1.4355 2.7441 l-4.9414 0 z M22.910109374999998 13.837900000000001 l0 -0.20508 l-1.0645 0 l0.019531 -3.2422 l-1.3086 3.2422 l1.084 0 l-0.078125 0.20508 l1.3477 0 z M33.5253625 13.6328 l1.1133 0 c-0.17578 2.3535 1.4258 4.1211 5.9375 1.2207 l1.4648 0 l-0.91797 3.9844 c-4.9512 2.8516 -12.295 1.9922 -11.221 -5.2051 l-1.1035 0 c0.058594 -0.26367 0.11719 -0.57617 0.19531 -0.91797 c0.99609 -4.3652 4.3262 -7.5391 8.9648 -7.5391 c2.5586 0 4.0332 0.73242 4.9121 1.3379 l-0.94727 4.082 l-1.5723 0 c-3.5352 -3.8086 -6.5918 0.078125 -6.8262 3.0371 z M43.50585625 13.6719 l-0.99609 0 l1.9141 -8.2422 l10.459 0 l-0.83984 3.7012 l-5.5762 0 l-0.29297 1.25 l5.127 0 l-0.75195 3.291 l0.99609 0 l-0.087891 0.39063 l-5.1367 0 l-0.51758 2.2852 l5.5566 0 l-0.83984 3.6914 l-10.479 0 z"></path></g><g id="SvgjsG8050" featurekey="nsji7U-0" transform="matrix(0.701668169606567,0,0,0.701668169606567,18.72296414544818,156.15485841717276)" fill="#000000"><path d="M10.72 5.84 l0 1.8 l-6.98 0 l0 4.44 l6.5 0 l0 1.8 l-6.5 0 l0 6.12 l-1.92 0 l0 -14.16 l8.9 0 z M34.29600000000001 5.48 c2.1066 0 3.8634 0.69998 5.27 2.1 s2.11 3.18 2.11 5.34 c0 1.3733 -0.31334 2.63 -0.94 3.77 s-1.51 2.0366 -2.65 2.69 s-2.4034 0.98 -3.79 0.98 c-1.3733 0 -2.6266 -0.32334 -3.76 -0.97 s-2.02 -1.54 -2.66 -2.68 s-0.96 -2.4034 -0.96 -3.79 c0 -2.1066 0.69 -3.8734 2.07 -5.3 s3.15 -2.14 5.31 -2.14 z M28.956000000000003 12.92 c0 1.6 0.49998 2.94 1.5 4.02 s2.28 1.62 3.84 1.62 c1.5333 0 2.8066 -0.53334 3.82 -1.6 s1.52 -2.4134 1.52 -4.04 c0 -1.6133 -0.5 -2.9566 -1.5 -4.03 s-2.2866 -1.61 -3.86 -1.61 c-1.52 0 -2.7866 0.53334 -3.8 1.6 s-1.52 2.4134 -1.52 4.04 z M64.01200000000001 5.84 c1.3867 0 2.4734 0.34666 3.26 1.04 s1.18 1.6667 1.18 2.92 c0 0.94666 -0.32334 1.7733 -0.97 2.48 s-1.4767 1.1267 -2.49 1.26 l-0.02 0 l4.02 6.46 l-2.4 0 l-3.6 -6.24 l-2.14 0 l0 6.24 l-1.92 0 l0 -14.16 l5.08 0 z M63.45200000000001 12.08 c1 0 1.7433 -0.18336 2.23 -0.55002 s0.73 -0.94332 0.73 -1.73 c0 -1.52 -0.98666 -2.28 -2.96 -2.28 l-2.6 0 l0 4.56 l2.6 0 z M88.36800000000001 5.84 l4.5 10.72 l0.08 0 l4.46 -10.72 l2.86 0 l0 14.16 l-1.92 0 l0 -11.64 l-0.04 0 l-4.78 11.64 l-1.28 0 l-4.78 -11.64 l-0.04 0 l0 11.64 l-1.92 0 l0 -14.16 l2.86 0 z M119.924 5.84 l0 8.74 c0 1.16 0.32334 2.1134 0.97 2.86 s1.51 1.12 2.59 1.12 s1.9433 -0.37334 2.59 -1.12 s0.97 -1.7 0.97 -2.86 l0 -8.74 l1.92 0 l0 9.06 c0 0.97334 -0.23 1.8833 -0.69 2.73 s-1.1133 1.5133 -1.96 2 s-1.79 0.73 -2.83 0.73 c-1.6 0 -2.9134 -0.52334 -3.94 -1.57 s-1.54 -2.3434 -1.54 -3.89 l0 -9.06 l1.92 0 z M148.76000000000002 5.84 l0 12.36 l6.5 0 l0 1.8 l-8.42 0 l0 -14.16 l1.92 0 z M177.89600000000002 5.84 l6.06 14.16 l-2.24 0 l-1.42 -3.5 l-6.74 0 l-1.4 3.5 l-2.24 0 l6.24 -14.16 l1.74 0 z M174.23600000000002 14.82 l5.36 0 l-2.64 -6.5 l-0.04 0 z M229.48800000000003 5.84 l0 1.8 l-7.22 0 l0 4.22 l6.72 0 l0 1.8 l-6.72 0 l0 4.54 l7.58 0 l0 1.8 l-9.5 0 l0 -14.16 l9.14 0 z"></path></g></svg>