<svg xmlns="http://www.w3.org/2000/svg" width="507.65000000000003" height="101.97433897992558" viewBox="0 0 406 81.55536614961052" class="looka-1j8o68f"><defs id="SvgjsDefs6127"></defs><g id="SvgjsG6128" featurekey="PG4fjM-0" transform="matrix(0.9518267034032204,0,0,0.9518267034032204,-25.876036574701292,-7.2357868243889865)" fill="#ffffff"><g xmlns="http://www.w3.org/2000/svg"><g><path d="M50.467,8.649l-0.566-0.69c-0.016-0.022-0.031-0.044-0.052-0.062l-0.242-0.295l-0.241,0.294    c-0.022,0.02-0.038,0.043-0.055,0.067l-0.563,0.687C30.64,30.283,24.062,47.821,28.544,62.312    c3.623,11.626,16.015,13.726,19.92,14.009v15.821c0,0.666,0.478,1.143,1.143,1.143c0.666,0,1.141-0.477,1.141-1.143V76.32    c3.908-0.382,16.298-2.383,19.922-14.009C75.153,47.821,68.575,30.288,50.467,8.649z M49.607,37.127    c0.858,0,1.555,0.697,1.555,1.555c0,0.856-0.697,1.554-1.555,1.554c-0.857,0-1.555-0.697-1.555-1.554    C48.052,37.824,48.75,37.127,49.607,37.127z M49.607,60.908c0.924,0,1.674,0.751,1.674,1.675c0,0.797-0.56,1.463-1.308,1.631    c-0.118,0.026-0.24,0.043-0.366,0.043c-0.126,0-0.249-0.017-0.367-0.043c-0.747-0.168-1.308-0.834-1.308-1.631    C47.933,61.659,48.684,60.908,49.607,60.908z M69.163,58.463h-3.726l-4.384-4.385c-0.068-0.068-0.164-0.107-0.261-0.107h-1.286    c-0.174-0.944-0.999-1.665-1.994-1.665c-1.119,0-2.031,0.912-2.031,2.031c0,1.12,0.912,2.032,2.031,2.032    c0.994,0,1.82-0.72,1.994-1.665h1.135l4.385,4.385c0.068,0.068,0.163,0.107,0.26,0.107h3.735c-0.177,0.826-0.389,1.642-0.64,2.445    c-3.103,10.15-13.698,12.049-17.47,12.377c-0.051,0.005-0.102,0.008-0.153,0.013l-0.011,0.002    c-0.256,0.022-0.515,0.031-0.775,0.036v-2.977l3.402-3.403h2.028c0.174,0.945,1.001,1.665,1.994,1.665    c1.122,0,2.031-0.911,2.031-2.032c0-1.12-0.909-2.031-2.031-2.031c-0.994,0-1.82,0.72-1.994,1.665h-2.18    c-0.097,0-0.19,0.038-0.26,0.107l-2.991,2.991v-5.322c1.031-0.176,1.821-1.068,1.821-2.149c0-1.206-0.982-2.188-2.188-2.188    c-1.206,0-2.187,0.982-2.187,2.188c0,1.08,0.789,1.974,1.82,2.149v6.208v0.503l-3.398-4.249v-2.788    c0-0.022-0.009-0.044-0.014-0.066c0.65-0.857,0.593-2.081-0.188-2.862c0.094,0.093,0.187,0.187,0.227,0.226    c-0.025-0.024-0.087-0.087-0.227-0.227c-0.154-0.153-0.222-0.223-0.24-0.239c0.027,0.026,0.133,0.133,0.239,0.238    c-0.853-0.852-2.24-0.852-3.092,0.001c-0.853,0.854-0.853,2.241,0,3.095c0.693,0.693,1.736,0.812,2.562,0.379v2.372    c0,0.083,0.028,0.164,0.081,0.229l4.052,5.066v1.433c-0.56-0.027-1.114-0.086-1.651-0.197    c-4.259-0.505-13.816-2.749-16.736-12.301c-0.107-0.339-0.203-0.681-0.296-1.022l2.67-2.67h6.747c0.097,0,0.191-0.04,0.259-0.107    l0.616-0.615c0.79,0.545,1.883,0.47,2.586-0.233c0.792-0.792,0.792-2.081,0-2.873s-2.081-0.792-2.872,0    c-0.704,0.703-0.779,1.796-0.233,2.587l-0.508,0.508h-6.747c-0.097,0-0.191,0.04-0.259,0.107l-2.468,2.469    c-1.584-6.604-0.751-13.953,2.565-22.147c0.026,0.006,0.05,0.016,0.078,0.016h2.282l5.057,5.057    c-0.546,0.791-0.47,1.884,0.233,2.587c0.791,0.791,2.08,0.791,2.872,0c0.792-0.792,0.792-2.082,0-2.873    c-0.703-0.703-1.797-0.778-2.587-0.233l-5.164-5.165c-0.068-0.068-0.163-0.107-0.259-0.107h-2.21    c3.204-7.634,8.532-15.995,16.026-25.16v3.643l-4.025,4.025c-0.068,0.068-0.107,0.163-0.107,0.259V31.6    c-0.945,0.174-1.665,1-1.665,1.994c0,1.12,0.912,2.032,2.031,2.032c1.121,0,2.031-0.912,2.031-2.032    c0-0.994-0.718-1.82-1.664-1.994V19.757l3.398-3.399v5.159v15.17c-0.945,0.173-1.665,1-1.665,1.995    c0,1.12,0.912,2.031,2.032,2.031s2.031-0.912,2.031-2.031c0-0.995-0.72-1.821-1.665-1.995V22.402l3.335,3.335v7.578    c-0.945,0.174-1.664,1-1.664,1.994c0,1.12,0.911,2.031,2.031,2.031s2.031-0.912,2.031-2.031c0-0.995-0.72-1.821-1.665-1.994    v-7.729c0-0.097-0.039-0.19-0.107-0.259l-3.961-3.961v-5.891c0-0.001,0-0.002,0-0.003v-3.794    c5.302,6.483,9.519,12.563,12.668,18.272c-0.029,0.017-0.065,0.013-0.091,0.038l-2.015,2.015    c-0.067,0.068-0.106,0.163-0.106,0.259v8.3l-2.038,2.037c-0.79-0.546-1.883-0.471-2.586,0.231    c0.197-0.198,0.393-0.394-0.002,0.001c-0.001,0-0.001,0.001-0.002,0.002c-0.789,0.792-0.788,2.079,0.002,2.871    c0.792,0.792,2.081,0.792,2.873,0c0.703-0.704,0.778-1.796,0.233-2.587l2.145-2.145c0.068-0.069,0.107-0.163,0.107-0.259v-8.301    l1.828-1.827C68.661,41.08,70.686,50.308,69.163,58.463z M59.067,54.337c0,0.127-0.02,0.249-0.049,0.367    c-0.165,0.68-0.774,1.188-1.506,1.188c-0.857,0-1.555-0.697-1.555-1.555c0-0.856,0.697-1.555,1.555-1.555    c0.731,0,1.341,0.509,1.507,1.188C59.048,54.089,59.067,54.21,59.067,54.337z M55.844,67.322c0-0.127,0.02-0.248,0.049-0.366    c0.166-0.68,0.776-1.188,1.506-1.188c0.858,0,1.556,0.698,1.556,1.555c0,0.858-0.697,1.555-1.556,1.555    c-0.729,0-1.34-0.507-1.506-1.188C55.863,67.571,55.844,67.449,55.844,67.322z M42.91,64.208c-0.654-0.653-0.654-1.716,0-2.368    c0.653-0.652,1.714-0.652,2.367,0c0.563,0.563,0.638,1.431,0.229,2.078c-0.065,0.103-0.139,0.2-0.229,0.29    c-0.089,0.089-0.188,0.164-0.29,0.229C44.34,64.846,43.474,64.771,42.91,64.208z M40.9,54.369c0.605-0.606,1.592-0.606,2.198,0    c0.607,0.605,0.607,1.592,0,2.198c-0.516,0.517-1.307,0.589-1.905,0.226c-0.104-0.063-0.203-0.136-0.293-0.226    s-0.162-0.189-0.226-0.294C40.311,55.676,40.383,54.885,40.9,54.369z M41.193,42.454c0.598-0.364,1.389-0.292,1.905,0.225    c0.607,0.606,0.607,1.592,0,2.198c-0.605,0.607-1.592,0.607-2.198,0c-0.517-0.516-0.589-1.307-0.225-1.905    c0.063-0.104,0.135-0.204,0.225-0.293C40.99,42.589,41.089,42.517,41.193,42.454z M45.475,32.04c0.858,0,1.555,0.698,1.555,1.555    c0,0.858-0.697,1.555-1.555,1.555c-0.856,0-1.553-0.697-1.553-1.555C43.921,32.737,44.618,32.04,45.475,32.04z M53.676,33.754    c0.857,0,1.555,0.697,1.555,1.555c0,0.857-0.697,1.555-1.555,1.555c-0.856,0-1.555-0.698-1.555-1.555    C52.121,34.451,52.819,33.754,53.676,33.754z M58.34,45.367c-0.606,0.606-1.592,0.606-2.198,0c-0.606-0.606-0.606-1.593,0-2.199    c0.517-0.517,1.308-0.589,1.905-0.225c0.104,0.063,0.203,0.136,0.293,0.225c0.09,0.09,0.162,0.189,0.226,0.293    C58.93,44.06,58.857,44.851,58.34,45.367z"></path><path d="M43.435,42.342C44.227,43.133,42.643,41.55,43.435,42.342L43.435,42.342z"></path><path d="M40.563,54.031C41.354,53.239,39.771,54.823,40.563,54.031L40.563,54.031z"></path></g><path d="M66.147,49.979c-0.623,0-1.119,0.453-1.237,1.042H52.714v-0.497h-1.327v-0.961h1.327v-0.249h3.9   c0.064,0,0.128-0.025,0.174-0.071l3.617-3.617h3.829c0.117,0.589,0.613,1.042,1.238,1.042c0.71,0,1.286-0.576,1.286-1.287   c0-0.712-0.576-1.288-1.286-1.288c-0.625,0-1.121,0.453-1.238,1.042h-3.932c-0.064,0-0.127,0.026-0.172,0.072l-3.617,3.617h-3.8   v-0.544h-1.327V47.32h1.327v-1.28h-1.327V45.08h1.327v-0.401c0.062,0,0.125-0.024,0.172-0.071l3.856-3.855   c0.046-0.045,0.071-0.108,0.071-0.172V30.356l0.732-0.732c0.501,0.333,1.173,0.304,1.613-0.138c0.503-0.503,0.503-1.318,0-1.821   c-0.502-0.503-1.317-0.503-1.82,0c-0.441,0.441-0.472,1.112-0.139,1.612l-0.805,0.805c-0.046,0.046-0.071,0.109-0.071,0.173v10.222   l-3.61,3.611v-0.29h-1.327v-0.81h-3.559v0.81H46.5v0.29l-3.918-3.919v-7.466c0-0.064-0.027-0.127-0.073-0.172l-1.582-1.582   c0.335-0.5,0.305-1.171-0.138-1.613c-0.502-0.502-1.317-0.502-1.819,0c-0.503,0.503-0.503,1.318-0.001,1.821   c0.442,0.442,1.114,0.472,1.614,0.138l1.509,1.511v7.465c0,0.064,0.027,0.128,0.073,0.173l4.164,4.164   c0.047,0.047,0.11,0.071,0.172,0.071v0.401h1.328v0.961H46.5v1.28h1.328v0.961H46.5v0.324h-3.624l-5.869-5.87   c-0.045-0.045-0.109-0.072-0.173-0.072H35.61c-0.118-0.589-0.615-1.042-1.238-1.042c-0.711,0-1.288,0.577-1.288,1.287   c0,0.711,0.576,1.288,1.288,1.288c0.624,0,1.12-0.453,1.238-1.042h1.124l5.869,5.869c0.046,0.045,0.109,0.072,0.173,0.072H46.5   v0.469h1.328v0.961H46.5v0.497H34.313c-0.118-0.589-0.614-1.042-1.238-1.042c-0.71,0-1.288,0.577-1.288,1.287   c0,0.711,0.577,1.287,1.288,1.287c0.625,0,1.12-0.453,1.238-1.042H46.5v0.294h1.328v0.961H46.5v1.28h1.328v0.961H46.5v0.253   c-0.062,0-0.125,0.023-0.172,0.07l-5.776,5.775h-3.781c-0.118-0.589-0.615-1.042-1.238-1.042c-0.712,0-1.288,0.576-1.288,1.287   s0.576,1.287,1.288,1.287c0.624,0,1.121-0.453,1.238-1.043h3.882c0.063,0,0.126-0.025,0.172-0.071l5.674-5.675v0.439h1.328v1.608   h3.559v-1.608h1.327v-0.439l3.076,3.077h4.97l1.443,1.442c-0.334,0.501-0.304,1.172,0.138,1.613c0.503,0.503,1.317,0.503,1.821,0   c0.502-0.503,0.502-1.317,0-1.821c-0.442-0.44-1.113-0.471-1.614-0.138l-1.586-1.586h-4.969l-3.107-3.106   c-0.047-0.047-0.109-0.071-0.172-0.071v-0.252h-1.327v-0.961h1.327v-1.28h-1.327v-0.961h1.327v-0.294H64.91   c0.118,0.589,0.614,1.042,1.237,1.042c0.711,0,1.288-0.576,1.288-1.287C67.436,50.555,66.858,49.979,66.147,49.979z"></path></g></g><g id="SvgjsG6129" featurekey="textGroupContainer" transform="matrix(1,0,0,1,405,29)" fill="#ffffff"><rect xmlns="http://www.w3.org/2000/svg" y="0" height="1" width="1" opacity="0"></rect><rect xmlns="http://www.w3.org/2000/svg" y="0" x="-342" width="3" height="24"></rect></g><g id="SvgjsG6130" featurekey="jxYttZ-0" transform="matrix(1.0129205956416703,0,0,1.0129205956416703,79.3087900896124,26.415497565538303)" fill="#ffffff"><path d="M17.43 17.65 l0.040136 2.3242 l-1.1621 0.02002 c-0.015039 0.0002539 -1.0275 0.017129 -3.0076 0.017129 c-1.0032 0 -2.2546 -0.0044532 -3.7506 -0.017402 c-2.4132 -0.021054 -4.3428 -0.54212 -5.7348 -1.549 c-1.3835 -1.0007 -2.1454 -2.4562 -2.1454 -4.0986 c0 -1.6413 0.76854 -3.1002 2.164 -4.1074 c1.383 -0.99846 3.3616 -1.531 5.7218 -1.5402 c4.441 -0.017129 6.719 0.00027344 6.7416 0.00041016 l1.1622 0.0091602 l-0.01832 2.3246 l-1.1622 -0.0091602 c-0.022364 -0.0002539 -2.2892 -0.01752 -6.7144 -0.00039062 c-3.4358 0.01334 -5.5702 1.2866 -5.5702 3.3232 c0 0.90194 0.39812 1.6473 1.1831 2.215 c0.97936 0.70836 2.4984 1.0916 4.3926 1.1081 c4.4144 0.038574 6.6758 0.00089844 6.698 0.00050782 z M23.177 17.619 l13.59 0 l0 2.3477 l-15.938 0 l0 -11.407 l2.3477 0 l0 9.0597 z M42.4538 20.02461 l-2.3246 0 l0 -11.295 l2.3246 0 l0 11.295 z M60.137 17.557 l1.162 -0.017422 l0.034786 2.3242 l-1.1621 0.017402 c-0.18088 0.002754 -0.38542 0.0058984 -0.6087 0.0058984 c-1.614 0 -4.2026 -0.16008 -5.8378 -1.7712 c-0.72798 -0.71726 -1.1865 -1.629 -1.3698 -2.72 l-4.2054 0 l-0.016602 4.4896 l-2.3246 -0.0086328 l0.037402 -10.127 l0 -1.1635 l0.0043164 0 l0 -0.0043164 l1.1612 0.0043164 l10.951 0 c1.4728 0 3.6638 0.90678 3.6638 3.4048 c0 2.4982 -2.0362 3.405 -3.4048 3.405 l-3.4826 0 c0.12543 0.4252 0.32842 0.77924 0.61734 1.064 c1.1685 1.151 3.608 1.1146 4.7804 1.0969 z M48.1714 13.0714 l10.041 -0.000019531 c0.10148 -0.0035352 0.40426 -0.041718 0.6538 -0.17971 c0.21608 -0.11955 0.43686 -0.32006 0.43686 -0.90076 c0 -0.46692 -0.15799 -0.71972 -0.56382 -0.90166 c-0.36882 -0.16531 -0.77152 -0.17865 -0.77532 -0.17865 l-9.7922 0 l0 2.1608 z M78.379 8.662 l2.9056 0 l-9.017 12.023 l-9.018 -12.023 l2.9058 0 l6.1122 8.1492 z M92.5492 8.475 l15.938 0 l0 2.3477 l-6.7954 0 l0 9.0932 l-2.3476 0 l0 -9.0932 l-6.7946 0 l0 -2.3477 z M127.78699999999999 10.9512 l-13.59 0.000019531 l0 2.1863 l9.0642 0.03375 l-0.0086328 2.3478 l-9.0556 -0.03375 l0 2.1782 l13.59 0 l0 2.3477 l-15.938 0 l0 -11.407 l15.938 0 l0 2.3476 z M145.39 17.65 l0.040136 2.3242 l-1.1621 0.02002 c-0.015039 0.0002539 -1.0275 0.017129 -3.0076 0.017129 c-1.0032 0 -2.2546 -0.0044532 -3.7506 -0.017402 c-2.4132 -0.021054 -4.3428 -0.54212 -5.7348 -1.549 c-1.3835 -1.0007 -2.1454 -2.4562 -2.1454 -4.0986 c0 -1.6413 0.76854 -3.1002 2.164 -4.1074 c1.383 -0.99846 3.3616 -1.531 5.7218 -1.5402 c4.441 -0.017129 6.719 0.00027344 6.7416 0.00041016 l1.1622 0.0091602 l-0.01832 2.3246 l-1.1622 -0.0091602 c-0.022364 -0.0002539 -2.2892 -0.01752 -6.7144 -0.00039062 c-3.4358 0.01334 -5.5702 1.2866 -5.5702 3.3232 c0 0.90194 0.39812 1.6473 1.1831 2.215 c0.97936 0.70836 2.4984 1.0916 4.3926 1.1081 c4.4144 0.038574 6.6758 0.00089844 6.698 0.00050782 z M162.37899999999996 8.617 l2.3476 0 l0 11.407 l-2.3476 0 l0 -4.5299 l-11.242 0 l0 4.5299 l-2.3477 0 l0 -11.407 l2.3477 0 l0 4.5299 l11.242 0 l0 -4.5299 z M181.659 8.593 l2.3476 0 l0 11.25 l-13.59 -7.098 l0 7.2556 l-2.3477 0 l0 -11.25 l13.59 7.098 l0 -7.2556 z M202.28499999999997 9.649 c0.91776 0.9099 0.9102 2.226 0.89856 4.2182 c-0.00091796 0.14832 -0.0016992 0.302 -0.0023438 0.46118 c-0.0044532 1.1823 -0.0075976 2.0366 -0.13172 2.757 c-0.10568 0.6142 -0.34974 1.4995 -1.2436 2.0954 c-1.1321 0.75466 -2.8232 0.77168 -6.5282 0.8087 c-0.57862 0.0057618 -1.1122 0.010078 -1.6046 0.010078 c-2.9354 0 -4.411 -0.15537 -5.3538 -1.0922 c-0.98198 -0.9757 -0.97648 -2.4126 -0.96838 -4.5876 c0.0090234 -2.4268 0.014512 -3.8916 1.2447 -4.801 c1.0614 -0.7845 2.6028 -0.80516 5.9798 -0.85054 l0.67396 -0.0092774 c4.2088 -0.060156 5.9508 -0.085136 7.0354 0.99024 z M200.85099999999997 13.854199999999999 c0.006543 -1.1448 0.013457 -2.3288 -0.20864 -2.5488 c-0.27556 -0.27322 -1.5123 -0.33638 -3.1584 -0.33638 c-0.67736 0 -1.4242 0.010723 -2.2018 0.021836 l-0.67606 0.0092774 c-2.4194 0.032442 -4.1674 0.055976 -4.625 0.39406 c-0.2888 0.21346 -0.2935 1.4744 -0.29898 2.9346 c-0.0050976 1.3559 -0.0099414 2.6366 0.28016 2.9248 c0.4554 0.45254 2.9138 0.42782 5.2914 0.40428 c2.7302 -0.027206 4.7028 -0.046954 5.258 -0.4171 c0.32686 -0.2179 0.33104 -1.3516 0.33692 -2.9208 c0.00052734 -0.16074 0.0014453 -0.316 0.0023632 -0.46588 z M208.87699999999998 17.619 l13.59 0 l0 2.3477 l-15.938 0 l0 -11.407 l2.3477 0 l0 9.0597 z M240.765 9.649 c0.91776 0.9099 0.9102 2.226 0.89856 4.2182 c-0.00091796 0.14832 -0.0016992 0.302 -0.0023438 0.46118 c-0.0044532 1.1823 -0.0075976 2.0366 -0.13172 2.757 c-0.10568 0.6142 -0.34974 1.4995 -1.2436 2.0954 c-1.1321 0.75466 -2.8232 0.77168 -6.5282 0.8087 c-0.57862 0.0057618 -1.1122 0.010078 -1.6046 0.010078 c-2.9354 0 -4.411 -0.15537 -5.3538 -1.0922 c-0.98198 -0.9757 -0.97648 -2.4126 -0.96838 -4.5876 c0.0090234 -2.4268 0.014512 -3.8916 1.2447 -4.801 c1.0614 -0.7845 2.6028 -0.80516 5.9798 -0.85054 l0.67396 -0.0092774 c4.2088 -0.060156 5.9508 -0.085136 7.0354 0.99024 z M239.331 13.854199999999999 c0.006543 -1.1448 0.013457 -2.3288 -0.20864 -2.5488 c-0.27556 -0.27322 -1.5123 -0.33638 -3.1584 -0.33638 c-0.67736 0 -1.4242 0.010723 -2.2018 0.021836 l-0.67606 0.0092774 c-2.4194 0.032442 -4.1674 0.055976 -4.625 0.39406 c-0.2888 0.21346 -0.2935 1.4744 -0.29898 2.9346 c-0.0050976 1.3559 -0.0099414 2.6366 0.28016 2.9248 c0.4554 0.45254 2.9138 0.42782 5.2914 0.40428 c2.7302 -0.027206 4.7028 -0.046954 5.258 -0.4171 c0.32686 -0.2179 0.33104 -1.3516 0.33692 -2.9208 c0.00052734 -0.16074 0.0014453 -0.316 0.0023632 -0.46588 z M260.79 14.394400000000001 c-0.019883 1.3657 -0.00015625 4.4302 0.00023438 4.4608 l0.0077148 1.1699 l-7.8979 0 c-2.3734 0 -4.3588 -0.53114 -5.7416 -1.5357 c-1.3856 -1.0067 -2.1486 -2.467 -2.1486 -4.112 c0 -1.3641 0.51466 -2.5964 1.4885 -3.563 c1.3944 -1.3842 3.6104 -2.1058 6.4102 -2.0846 c1.7076 0.012559 6.6666 0.00013672 6.7164 0 l1.1622 -0.0030078 l0.005879 2.3246 l-1.1622 0.0030078 c-0.050098 0.00013672 -5.0206 0.012695 -6.7396 0 c-2.1376 -0.016875 -3.824 0.4851 -4.7556 1.4098 c-0.53204 0.52812 -0.80174 1.1717 -0.80174 1.9133 c0 2.0496 2.1326 3.323 5.5658 3.323 l5.5599 0 c-0.0024804 -0.63696 -0.0043164 -1.4395 -0.0024804 -2.1608 l-4.4771 0 l0 -2.3246 l6.8269 0 z M266.4938 20.02461 l-2.3246 0 l0 -11.295 l2.3246 0 l0 11.295 z M285.78700000000003 10.9512 l-13.59 0.000019531 l0 2.1863 l9.0642 0.03375 l-0.0086328 2.3478 l-9.0556 -0.03375 l0 2.1782 l13.59 0 l0 2.3477 l-15.938 0 l0 -11.407 l15.938 0 l0 2.3476 z M291.91800000000006 11.0046 c-0.21816 0.12059 -0.44118 0.32306 -0.44118 0.90966 c0 0.45724 0.14779 0.70718 0.52734 0.89108 c0.38386 0.18598 0.81196 0.19957 0.83354 0.2001 l8.5334 0.03336 c1.4828 0 3.6956 0.9158 3.6956 3.4388 s-2.0564 3.4388 -3.4388 3.4388 l-12.499 0 l0 -2.3477 l12.488 0 c0.1024 -0.0035352 0.40818 -0.04211 0.66022 -0.18152 c0.21828 -0.12072 0.44128 -0.32318 0.44128 -0.90964 c0 -0.45724 -0.14779 -0.70718 -0.52734 -0.89108 c-0.3827 -0.18547 -0.81038 -0.19947 -0.8343 -0.20012 l-8.5278 -0.03793 l0 0.0045703 c-1.4875 0 -3.7004 -0.9158 -3.7004 -3.4388 s2.0564 -3.4388 3.4388 -3.4388 l12.499 0 l0 2.3477 l-12.488 0 c-0.10229 0.0035352 -0.40834 0.04211 -0.6605 0.18152 z"></path></g></svg>